<svg xmlns="http://www.w3.org/2000/svg" width="80" height="80" viewBox="0 0 80 80"><rect x="2" y="2" width="76" height="76" rx="25" fill="#E8F4FB"/><ellipse cx="40" cy="68" rx="23" ry="3" fill="#2596BE" opacity=".12"/><path d="M18 32h44l-4-12H22Z" fill="#F2789F"/><path d="M18 32h44v4H18Z" fill="#E85A85"/><path d="M28 20q0-8 6-10m12 10q0-8-6-10" fill="none" stroke="#C93A6D" stroke-width="3"/><path d="M22 36h36v26a4 4 0 0 1-4 4H26a4 4 0 0 1-4-4Z" fill="#4FB3E8"/><path d="M32 36v30M48 36v30" stroke="#2D8FC4" stroke-width="3"/><path d="M34 48h4m4 0h4" stroke="#fff" stroke-width="3"/></svg>